<svg width="532" height="532" viewBox="0 0 532 532" fill="none" xmlns="http://www.w3.org/2000/svg">
<path d="M186.245 344.53L186.286 344.575L186.328 344.619C187.261 345.602 188.074 347.052 188.567 349.181H93.2385L95.0692 346.942L99.4162 341.625H178.26C182.258 341.625 184.666 342.783 186.245 344.53ZM159.701 215.014H86.4336C82.2075 215.014 79.7285 213.874 78.1905 212.28C77.213 211.182 76.393 209.633 75.9017 207.457H166.107L164.267 209.628L159.701 215.014ZM169.408 207.457H183.674C186.035 207.457 186.883 208.035 187.163 208.308C187.422 208.562 187.986 209.326 187.986 211.561C187.986 212.644 187.693 213.387 187.166 214.031L187.157 214.043L187.147 214.055L85.7923 339.552L82.4607 343.677L86.7743 346.761L88.2903 347.845L90.1598 349.181H75.1719C73.3253 349.181 72.3269 348.719 71.7084 348.19C71.3175 347.761 70.8594 346.927 70.8594 345.078C70.8594 343.995 71.153 343.251 71.6796 342.607L71.6874 342.598L71.6951 342.588L173.267 217.09L176.366 213.261L172.583 210.105L171.283 209.021L169.408 207.457ZM227.181 208.579C228.659 207.352 230.919 206.343 234.255 205.845V336.191V341.191H239.255H305.742C309.665 341.191 312.051 342.372 313.651 344.226L313.689 344.27L313.728 344.313C314.723 345.414 315.559 346.975 316.057 349.181H229.509C227.978 349.181 226.697 348.71 225.469 347.609C224.37 346.38 223.897 345.096 223.897 343.561V217.413C223.897 212.818 225.236 210.195 227.181 208.579ZM352.667 208.966L352.675 208.959C354.564 207.226 357.213 206.011 360.973 205.632L443.439 331.134L446.56 335.883L450.873 332.183L452.389 330.883L455.601 328.127L453.414 324.504L447.853 315.292V205.874C450.989 206.387 453.113 207.394 454.514 208.613L454.553 208.648L454.594 208.681C456.674 210.416 457.994 213.052 457.994 217.413V340.093C457.994 343.357 456.892 345.832 454.64 347.889L454.599 347.927L454.559 347.965C452.94 349.512 450.905 350.552 448.245 350.951L363.867 222.685L360.745 217.939L356.434 221.638L354.918 222.938L351.706 225.694L353.893 229.317L359.454 238.529V339.226C359.454 343.587 358.134 346.223 356.054 347.957L356.014 347.991L355.974 348.025C354.573 349.245 352.449 350.251 349.313 350.764V218.063C349.313 213.642 350.607 210.849 352.667 208.966ZM335.645 35.2199C284.146 -9.48869 206.184 -3.94953 161.513 47.59L35.1934 193.333C-9.47539 244.87 -3.94252 322.89 47.5533 367.596L196.355 496.78C247.854 541.489 325.816 535.95 370.487 484.41L496.807 338.667C541.475 287.13 535.943 209.11 484.447 164.404L335.645 35.2199Z" fill="black" stroke="white" stroke-width="10"/>
</svg>
