<svg width="560" height="648" viewBox="0 0 560 648" fill="none" xmlns="http://www.w3.org/2000/svg">
<path d="M95.0994 258.871C103.23 238.276 126.531 228.166 147.144 236.289C167.757 244.412 177.876 267.692 169.746 288.287L77.4555 522.067C69.3253 542.661 46.0242 552.772 25.4111 544.649C4.79804 536.526 -5.32126 513.245 2.80902 492.651L95.0994 258.871Z" fill="#E8F0FD"/>
<path d="M151.719 115.448C159.85 94.853 183.151 84.7427 203.764 92.8657C224.377 100.989 234.496 124.269 226.366 144.864L209.38 187.891C201.25 208.485 177.948 218.596 157.335 210.473C136.722 202.35 126.603 179.069 134.733 158.475L151.719 115.448Z" fill="#E8F0FD"/>
<path d="M332.136 32.411C340.266 11.8162 363.568 1.70593 384.181 9.82896C404.794 17.952 414.913 41.2323 406.783 61.827L376.774 137.841C368.644 158.436 345.343 168.546 324.73 160.423C304.117 152.3 293.997 129.02 302.128 108.425L332.136 32.411Z" fill="#E8F0FD"/>
<path d="M262.494 208.821C270.624 188.227 293.925 178.116 314.538 186.239C335.151 194.362 345.271 217.643 337.14 238.238L244.85 472.017C236.72 492.612 213.418 502.722 192.805 494.599C172.192 486.476 162.073 463.196 170.203 442.601L262.494 208.821Z" fill="#E8F0FD"/>
<path d="M130.569 542.997C138.7 522.403 162.001 512.292 182.614 520.415C203.227 528.538 213.346 551.819 205.216 572.413L185.399 622.612C177.269 643.206 153.968 653.317 133.355 645.193C112.741 637.07 102.622 613.79 110.752 593.195L130.569 542.997Z" fill="#E8F0FD"/>
<path d="M350.62 359.564C358.75 338.97 382.052 328.859 402.665 336.982C423.278 345.105 433.397 368.386 425.267 388.981L388.464 482.206C380.334 502.8 357.032 512.911 336.419 504.788C315.806 496.665 305.687 473.384 313.817 452.789L350.62 359.564Z" fill="#E8F0FD"/>
<path d="M482.544 25.3885C490.675 4.79377 513.976 -5.31652 534.589 2.80651C555.202 10.9295 565.321 34.2099 557.191 54.8046L464.901 288.584C456.77 309.179 433.469 319.289 412.856 311.166C392.243 303.043 382.124 279.763 390.254 259.168L482.544 25.3885Z" fill="#E8F0FD"/>
</svg>
