<svg width="181" height="180" viewBox="0 0 181 180" fill="none" xmlns="http://www.w3.org/2000/svg">
<rect x="83.1981" width="128.212" height="126.969" rx="35" transform="rotate(40.9398 83.1981 0)" fill="#D9D9D9" stroke="black"/>
<path d="M33.632 116C32.7787 116 32.096 115.765 31.584 115.296C31.1147 114.827 30.88 114.165 30.88 113.312C30.88 112.672 31.072 112.117 31.456 111.648L61.472 74.592L61.088 74.272L59.296 76.384H36.96C35.424 76.384 34.2507 75.9573 33.44 75.104C32.6293 74.208 32.224 72.9067 32.224 71.2H65.696C67.5307 71.2 68.448 72.096 68.448 73.888C68.448 74.528 68.256 75.0827 67.872 75.552L37.92 112.608L38.368 112.928L40.096 110.816H64.096C65.5893 110.816 66.7413 111.264 67.552 112.16C68.3627 113.013 68.768 114.293 68.768 116H33.632ZM79.241 116C78.3877 116 77.641 115.701 77.001 115.104C76.4037 114.464 76.105 113.717 76.105 112.864V75.616C76.105 72.288 78.1103 70.624 82.121 70.624V110.688H101.769C103.262 110.688 104.414 111.157 105.225 112.096C106.036 112.992 106.441 114.293 106.441 116H79.241ZM113.168 75.808C113.168 74.1867 113.658 72.928 114.64 72.032C115.664 71.0933 117.072 70.624 118.864 70.624L143.696 108.384L144.144 108L142.288 104.928V70.624C144.25 70.624 145.722 71.0507 146.704 71.904C147.728 72.7573 148.24 73.9947 148.24 75.616V111.84C148.24 113.205 147.749 114.336 146.768 115.232C145.829 116.128 144.613 116.576 143.12 116.576L117.712 77.984L117.264 78.368L119.12 81.44V111.584C119.12 113.205 118.608 114.443 117.584 115.296C116.602 116.149 115.13 116.576 113.168 116.576V75.808Z" fill="black"/>
<path d="M31.584 115.296L30.8769 116.003L30.8923 116.018L30.9083 116.033L31.584 115.296ZM31.456 111.648L32.23 112.281L32.2331 112.277L31.456 111.648ZM61.472 74.592L62.2491 75.2214L62.8698 74.4551L62.1122 73.8238L61.472 74.592ZM61.088 74.272L61.7282 73.5038L60.9668 72.8692L60.3255 73.625L61.088 74.272ZM59.296 76.384V77.384H59.759L60.0585 77.031L59.296 76.384ZM33.44 75.104L32.6985 75.7749L32.7066 75.7839L32.715 75.7927L33.44 75.104ZM32.224 71.2V70.2H31.224V71.2H32.224ZM67.872 75.552L67.098 74.9187L67.0943 74.9234L67.872 75.552ZM37.92 112.608L37.1423 111.979L36.4751 112.805L37.3388 113.422L37.92 112.608ZM38.368 112.928L37.7868 113.742L38.5489 114.286L39.142 113.561L38.368 112.928ZM40.096 110.816V109.816H39.6221L39.322 110.183L40.096 110.816ZM67.552 112.16L66.8105 112.831L66.8186 112.84L66.827 112.849L67.552 112.16ZM68.768 116V117H69.768V116H68.768ZM33.632 115C32.9689 115 32.5474 114.823 32.2597 114.559L30.9083 116.033C31.6446 116.708 32.5884 117 33.632 117V115ZM32.2911 114.589C32.0588 114.357 31.88 113.979 31.88 113.312H29.88C29.88 114.351 30.1706 115.297 30.8769 116.003L32.2911 114.589ZM31.88 113.312C31.88 112.889 32.0006 112.562 32.23 112.281L30.682 111.015C30.1434 111.673 29.88 112.455 29.88 113.312H31.88ZM32.2331 112.277L62.2491 75.2214L60.6949 73.9626L30.6789 111.019L32.2331 112.277ZM62.1122 73.8238L61.7282 73.5038L60.4478 75.0402L60.8318 75.3602L62.1122 73.8238ZM60.3255 73.625L58.5335 75.737L60.0585 77.031L61.8505 74.919L60.3255 73.625ZM59.296 75.384H36.96V77.384H59.296V75.384ZM36.96 75.384C35.6104 75.384 34.7339 75.0141 34.165 74.4152L32.715 75.7927C33.7674 76.9005 35.2376 77.384 36.96 77.384V75.384ZM34.1815 74.4331C33.5948 73.7846 33.224 72.7606 33.224 71.2H31.224C31.224 73.0527 31.6638 74.6314 32.6985 75.7749L34.1815 74.4331ZM32.224 72.2H65.696V70.2H32.224V72.2ZM65.696 72.2C66.465 72.2 66.857 72.3879 67.0613 72.5874C67.2612 72.7826 67.448 73.1522 67.448 73.888H69.448C69.448 72.8318 69.1762 71.8574 68.4587 71.1566C67.7457 70.4601 66.7617 70.2 65.696 70.2V72.2ZM67.448 73.888C67.448 74.311 67.3274 74.6385 67.098 74.9188L68.646 76.1852C69.1846 75.5268 69.448 74.745 69.448 73.888H67.448ZM67.0943 74.9234L37.1423 111.979L38.6977 113.237L68.6497 76.1806L67.0943 74.9234ZM37.3388 113.422L37.7868 113.742L38.9492 112.114L38.5012 111.794L37.3388 113.422ZM39.142 113.561L40.87 111.449L39.322 110.183L37.594 112.295L39.142 113.561ZM40.096 111.816H64.096V109.816H40.096V111.816ZM64.096 111.816C65.3786 111.816 66.2327 112.192 66.8105 112.831L68.2935 111.489C67.2499 110.336 65.8001 109.816 64.096 109.816V111.816ZM66.827 112.849C67.3954 113.447 67.768 114.435 67.768 116H69.768C69.768 114.152 69.3299 112.58 68.277 111.471L66.827 112.849ZM68.768 115H33.632V117H68.768V115ZM77.001 115.104L76.2699 115.786L76.2935 115.812L76.3187 115.835L77.001 115.104ZM82.121 70.624H83.121V69.624H82.121V70.624ZM82.121 110.688H81.121V111.688H82.121V110.688ZM105.225 112.096L104.468 112.75L104.476 112.758L104.483 112.767L105.225 112.096ZM106.441 116V117H107.441V116H106.441ZM79.241 115C78.6481 115 78.1435 114.802 77.6833 114.373L76.3187 115.835C77.1385 116.6 78.1272 117 79.241 117V115ZM77.7321 114.422C77.3026 113.962 77.105 113.457 77.105 112.864H75.105C75.105 113.978 75.5047 114.966 76.2699 115.786L77.7321 114.422ZM77.105 112.864V75.616H75.105V112.864H77.105ZM77.105 75.616C77.105 74.1603 77.5346 73.2332 78.2476 72.6416C78.9963 72.0203 80.2291 71.624 82.121 71.624V69.624C80.0022 69.624 78.2271 70.0597 76.9704 71.1024C75.678 72.1748 75.105 73.7437 75.105 75.616H77.105ZM81.121 70.624V110.688H83.121V70.624H81.121ZM82.121 111.688H101.769V109.688H82.121V111.688ZM101.769 111.688C103.037 111.688 103.886 112.076 104.468 112.75L105.982 111.442C104.943 110.239 103.488 109.688 101.769 109.688V111.688ZM104.483 112.767C105.07 113.415 105.441 114.439 105.441 116H107.441C107.441 114.147 107.001 112.569 105.967 111.425L104.483 112.767ZM106.441 115H79.241V117H106.441V115ZM114.64 72.032L115.314 72.7705L115.315 72.7692L114.64 72.032ZM118.864 70.624L119.699 70.0745L119.403 69.624H118.864V70.624ZM143.696 108.384L142.86 108.933L143.484 109.882L144.346 109.143L143.696 108.384ZM144.144 108L144.794 108.759L145.437 108.208L144.999 107.483L144.144 108ZM142.288 104.928H141.288V105.207L141.432 105.445L142.288 104.928ZM142.288 70.624V69.624H141.288V70.624H142.288ZM146.704 71.904L146.047 72.6586L146.055 72.6655L146.063 72.6722L146.704 71.904ZM146.768 115.232L146.093 114.494L146.085 114.501L146.077 114.509L146.768 115.232ZM143.12 116.576L142.284 117.126L142.581 117.576H143.12V116.576ZM117.712 77.984L118.547 77.4341L117.923 76.486L117.061 77.2247L117.712 77.984ZM117.264 78.368L116.613 77.6087L115.97 78.16L116.408 78.8851L117.264 78.368ZM119.12 81.44H120.12V81.1614L119.975 80.9229L119.12 81.44ZM117.584 115.296L116.943 114.528L116.935 114.535L116.927 114.541L117.584 115.296ZM113.168 116.576H112.168V117.576H113.168V116.576ZM114.168 75.808C114.168 74.4008 114.585 73.4362 115.314 72.7705L113.965 71.2935C112.732 72.4198 112.168 73.9725 112.168 75.808H114.168ZM115.315 72.7692C116.106 72.0441 117.247 71.624 118.864 71.624V69.624C116.896 69.624 115.221 70.1426 113.964 71.2948L115.315 72.7692ZM118.028 71.1735L142.86 108.933L144.531 107.835L119.699 70.0745L118.028 71.1735ZM144.346 109.143L144.794 108.759L143.493 107.241L143.045 107.625L144.346 109.143ZM144.999 107.483L143.143 104.411L141.432 105.445L143.288 108.517L144.999 107.483ZM143.288 104.928V70.624H141.288V104.928H143.288ZM142.288 71.624C144.128 71.624 145.321 72.027 146.047 72.6586L147.36 71.1494C146.123 70.0743 144.373 69.624 142.288 69.624V71.624ZM146.063 72.6722C146.81 73.2946 147.24 74.2209 147.24 75.616H149.24C149.24 73.7684 148.645 72.2201 147.344 71.1358L146.063 72.6722ZM147.24 75.616V111.84H149.24V75.616H147.24ZM147.24 111.84C147.24 112.933 146.861 113.793 146.093 114.494L147.442 115.97C148.637 114.879 149.24 113.478 149.24 111.84H147.24ZM146.077 114.509C145.353 115.2 144.397 115.576 143.12 115.576V117.576C144.828 117.576 146.305 117.056 147.458 115.955L146.077 114.509ZM143.955 116.026L118.547 77.4341L116.876 78.5339L142.284 117.126L143.955 116.026ZM117.061 77.2247L116.613 77.6087L117.914 79.1273L118.362 78.7433L117.061 77.2247ZM116.408 78.8851L118.264 81.9571L119.975 80.9229L118.119 77.8509L116.408 78.8851ZM118.12 81.44V111.584H120.12V81.44H118.12ZM118.12 111.584C118.12 112.979 117.69 113.905 116.943 114.528L118.224 116.064C119.525 114.98 120.12 113.432 120.12 111.584H118.12ZM116.927 114.541C116.201 115.173 115.008 115.576 113.168 115.576V117.576C115.253 117.576 117.003 117.126 118.24 116.051L116.927 114.541ZM114.168 116.576V75.808H112.168V116.576H114.168Z" fill="white"/>
</svg>
