<svg width="20" height="20" viewBox="0 0 20 20" xmlns="http://www.w3.org/2000/svg">
  <path
    d="M4.90252 15.5442C4.65252 15.3775 4.43752 15.165 4.18586 14.8642C4.05523 14.7043 3.92578 14.5435 3.79752 14.3817C3.41169 13.9025 3.16836 13.6817 2.91669 13.5908C2.70861 13.5161 2.53872 13.3618 2.4444 13.1619C2.35009 12.9619 2.33907 12.7327 2.41377 12.5246C2.48848 12.3165 2.64278 12.1466 2.84274 12.0523C3.0427 11.958 3.27194 11.947 3.48002 12.0217C4.10669 12.2467 4.53086 12.6342 5.10252 13.345C5.02419 13.2475 5.38586 13.7008 5.46336 13.7942C5.62169 13.9833 5.73836 14.0983 5.83002 14.1592C6.00002 14.2733 6.31919 14.3225 6.78836 14.2758C6.80752 13.9575 6.86669 13.6483 6.95669 13.3633C4.48336 12.7583 3.08336 11.1633 3.08336 8.03333C3.08336 7 3.39169 6.07 3.96502 5.29C3.78336 4.545 3.81086 3.64417 4.21669 2.63C4.26275 2.51528 4.33375 2.41224 4.42455 2.32836C4.51536 2.24447 4.62369 2.18184 4.74169 2.145C4.80919 2.125 4.84752 2.11583 4.91502 2.10583C5.58419 2.00333 6.52919 2.2475 7.76086 3.01917C8.49485 2.84757 9.24624 2.76144 10 2.7625C10.76 2.7625 11.515 2.84917 12.2367 3.01917C13.4675 2.24167 14.4142 1.9975 15.0884 2.10583C15.1592 2.11667 15.2192 2.13083 15.27 2.1475C15.3857 2.18565 15.4916 2.24869 15.5803 2.3322C15.669 2.41571 15.7383 2.51765 15.7834 2.63083C16.1892 3.64417 16.2167 4.545 16.035 5.28917C16.6109 6.06917 16.9167 6.99333 16.9167 8.03333C16.9167 11.1642 15.5217 12.7542 13.0484 13.36C13.1525 13.7058 13.2067 14.0925 13.2067 14.51C13.2068 15.2645 13.2034 16.0189 13.1967 16.7733C13.3838 16.8142 13.5512 16.9182 13.6706 17.068C13.7901 17.2177 13.8542 17.4041 13.8524 17.5956C13.8505 17.7871 13.7827 17.9722 13.6604 18.1196C13.5381 18.267 13.3688 18.3678 13.1809 18.405C12.2317 18.595 11.5284 17.9617 11.5284 17.1342L11.53 16.7625L11.5342 16.175C11.5384 15.585 11.54 15.06 11.54 14.51C11.54 13.9292 11.3875 13.55 11.1859 13.3767C10.635 12.9017 10.9142 11.9975 11.6359 11.9167C14.1084 11.6392 15.25 10.6817 15.25 8.03333C15.25 7.2375 14.99 6.58 14.4892 6.03C14.3837 5.91437 14.3129 5.77136 14.2849 5.61734C14.2568 5.46333 14.2728 5.30454 14.3309 5.15917C14.4692 4.81417 14.5284 4.36167 14.4109 3.81417L14.4025 3.81667C13.9934 3.9325 13.4775 4.18333 12.8542 4.6075C12.7537 4.67571 12.6395 4.72112 12.5196 4.74056C12.3996 4.75999 12.2769 4.75297 12.16 4.72C11.4566 4.52524 10.7299 4.42739 10 4.42917C9.25836 4.42917 8.52336 4.52833 7.84002 4.72083C7.72354 4.75355 7.60133 4.7605 7.48188 4.74122C7.36244 4.72194 7.24863 4.67687 7.14836 4.60917C6.52169 4.18667 6.00336 3.93667 5.59169 3.82C5.47169 4.36417 5.53086 4.815 5.66836 5.15917C5.72653 5.30446 5.74261 5.46321 5.71476 5.61722C5.6869 5.77123 5.61624 5.91428 5.51086 6.03C5.01336 6.575 4.75002 7.245 4.75002 8.03333C4.75002 10.6767 5.89252 11.64 8.35169 11.9167C9.07252 11.9975 9.35252 12.8975 8.80502 13.3733C8.64502 13.5133 8.44752 13.9833 8.44752 14.51V17.135C8.44752 17.9567 7.75169 18.5725 6.81419 18.4083C6.624 18.3749 6.4513 18.2765 6.32562 18.1299C6.19994 17.9833 6.12908 17.7976 6.12514 17.6045C6.12121 17.4115 6.18444 17.223 6.30404 17.0714C6.42364 16.9198 6.59218 16.8145 6.78086 16.7733V15.9483C6.02252 15.9992 5.39586 15.875 4.90252 15.5442V15.5442Z"
  />
</svg>