<svg width="18" height="18" viewBox="0 0 18 18" xmlns="http://www.w3.org/2000/svg">
  <path
    d="M8.99984 6.5C8.3368 6.5 7.70091 6.76339 7.23207 7.23223C6.76323 7.70107 6.49984 8.33696 6.49984 9C6.49984 9.66304 6.76323 10.2989 7.23207 10.7678C7.70091 11.2366 8.3368 11.5 8.99984 11.5C9.66288 11.5 10.2988 11.2366 10.7676 10.7678C11.2364 10.2989 11.4998 9.66304 11.4998 9C11.4998 8.33696 11.2364 7.70107 10.7676 7.23223C10.2988 6.76339 9.66288 6.5 8.99984 6.5ZM8.99984 4.83333C10.1049 4.83333 11.1647 5.27232 11.9461 6.05372C12.7275 6.83512 13.1665 7.89493 13.1665 9C13.1665 10.1051 12.7275 11.1649 11.9461 11.9463C11.1647 12.7277 10.1049 13.1667 8.99984 13.1667C7.89477 13.1667 6.83496 12.7277 6.05356 11.9463C5.27216 11.1649 4.83317 10.1051 4.83317 9C4.83317 7.89493 5.27216 6.83512 6.05356 6.05372C6.83496 5.27232 7.89477 4.83333 8.99984 4.83333V4.83333ZM14.4165 4.625C14.4165 4.90126 14.3068 5.16622 14.1114 5.36157C13.9161 5.55692 13.6511 5.66666 13.3748 5.66666C13.0986 5.66666 12.8336 5.55692 12.6383 5.36157C12.4429 5.16622 12.3332 4.90126 12.3332 4.625C12.3332 4.34873 12.4429 4.08378 12.6383 3.88843C12.8336 3.69308 13.0986 3.58333 13.3748 3.58333C13.6511 3.58333 13.9161 3.69308 14.1114 3.88843C14.3068 4.08378 14.4165 4.34873 14.4165 4.625V4.625ZM8.99984 2.33333C6.93817 2.33333 6.6015 2.33916 5.64234 2.38166C4.989 2.4125 4.55067 2.5 4.144 2.65833C3.80368 2.78328 3.49601 2.98355 3.244 3.24416C2.98318 3.49616 2.78263 3.80382 2.65734 4.14416C2.499 4.5525 2.4115 4.99 2.3815 5.6425C2.33817 6.5625 2.33317 6.88416 2.33317 9C2.33317 11.0617 2.339 11.3983 2.3815 12.3575C2.41234 13.01 2.49984 13.4492 2.65734 13.855C2.799 14.2175 2.96567 14.4783 3.24234 14.755C3.52317 15.035 3.784 15.2025 4.14234 15.3408C4.554 15.5 4.99234 15.5883 5.64234 15.6183C6.56234 15.6617 6.884 15.6667 8.99984 15.6667C11.0615 15.6667 11.3982 15.6608 12.3573 15.6183C13.009 15.5875 13.4482 15.5 13.8548 15.3425C14.1946 15.2169 14.5021 15.0171 14.7548 14.7575C15.0357 14.4767 15.2032 14.2158 15.3415 13.8575C15.4998 13.4467 15.5882 13.0075 15.6182 12.3575C15.6615 11.4375 15.6665 11.1158 15.6665 9C15.6665 6.93833 15.6607 6.60166 15.6182 5.6425C15.5873 4.99083 15.4998 4.55083 15.3415 4.14416C15.2159 3.80417 15.0157 3.49663 14.7557 3.24416C14.5038 2.9832 14.1961 2.78264 13.8557 2.6575C13.4473 2.49916 13.009 2.41166 12.3573 2.38166C11.4373 2.33833 11.1157 2.33333 8.99984 2.33333ZM8.99984 0.666664C11.264 0.666664 11.5465 0.674997 12.4348 0.716664C13.3223 0.758331 13.9265 0.897498 14.4582 1.10416C15.0082 1.31583 15.4715 1.6025 15.9348 2.065C16.3586 2.48158 16.6865 2.98549 16.8957 3.54166C17.1015 4.0725 17.2415 4.6775 17.2832 5.565C17.3223 6.45333 17.3332 6.73583 17.3332 9C17.3332 11.2642 17.3248 11.5467 17.2832 12.435C17.2415 13.3225 17.1015 13.9267 16.8957 14.4583C16.6871 15.0148 16.3591 15.5188 15.9348 15.935C15.5181 16.3586 15.0143 16.6865 14.4582 16.8958C13.9273 17.1017 13.3223 17.2417 12.4348 17.2833C11.5465 17.3225 11.264 17.3333 8.99984 17.3333C6.73567 17.3333 6.45317 17.325 5.56484 17.2833C4.67734 17.2417 4.07317 17.1017 3.5415 16.8958C2.98511 16.6871 2.48111 16.3591 2.06484 15.935C1.64101 15.5185 1.31311 15.0146 1.104 14.4583C0.897337 13.9275 0.758171 13.3225 0.716504 12.435C0.677337 11.5467 0.666504 11.2642 0.666504 9C0.666504 6.73583 0.674837 6.45333 0.716504 5.565C0.758171 4.67666 0.897337 4.07333 1.104 3.54166C1.31253 2.98515 1.64051 2.4811 2.06484 2.065C2.48123 1.64102 2.98519 1.31311 3.5415 1.10416C4.07317 0.897498 4.6765 0.758331 5.56484 0.716664C6.45317 0.677497 6.73567 0.666664 8.99984 0.666664Z"
  />
</svg>