<svg width="16" height="16" viewBox="0 0 16 16" xmlns="http://www.w3.org/2000/svg">
  <path
    d="M1.33431 0.5H14.6676C14.8887 0.5 15.1006 0.587797 15.2569 0.744078C15.4132 0.900358 15.501 1.11232 15.501 1.33333V14.6667C15.501 14.8877 15.4132 15.0996 15.2569 15.2559C15.1006 15.4122 14.8887 15.5 14.6676 15.5H1.33431C1.1133 15.5 0.901335 15.4122 0.745054 15.2559C0.588774 15.0996 0.500977 14.8877 0.500977 14.6667V1.33333C0.500977 1.11232 0.588774 0.900358 0.745054 0.744078C0.901335 0.587797 1.1133 0.5 1.33431 0.5ZM2.16764 2.16667V13.8333H13.8343V2.16667H2.16764ZM12.4176 11.2833L13.2135 12.0783V12.12H9.11264V12.0783L9.94931 11.2833C10.0326 11.2 10.0743 11.1167 10.0743 10.9908V6.05333C10.0743 5.84333 10.0743 5.55083 10.1168 5.3L7.35514 12.2042H7.31348L4.46681 5.84333C4.42514 5.67667 4.38348 5.67667 4.34181 5.59333V9.77667C4.29931 10.07 4.34181 10.3208 4.46681 10.5725L5.59681 12.0783V12.12H2.58348V12.0783L3.71348 10.53C3.83848 10.28 3.88014 9.98667 3.83848 9.735V5.13333C3.83848 4.92417 3.79681 4.6725 3.63014 4.50583L2.87598 3.45833V3.41667H5.80598L8.23264 8.815L10.3676 3.41667H13.2135V3.45833L12.4185 4.37917C12.3351 4.4625 12.2935 4.58833 12.2935 4.67167V11.0325C12.2935 11.1158 12.3343 11.2417 12.4176 11.2833Z" />
</svg>